<svg width="20" height="18" viewBox="0 0 20 18" fill="none" xmlns="http://www.w3.org/2000/svg">
<path d="M2.21049 1.81911C2.2208 1.80786 2.23205 1.79754 2.2433 1.78629C4.43985 -0.38777 7.7117 0.32191 10.0011 2.16036L10.0001 2.15942C10.0001 2.15942 10.0011 2.15942 10.0011 2.16036C10.0011 2.16036 10.002 2.16036 10.002 2.15942L10.002 2.1613C12.2904 0.322848 15.5633 -0.386784 17.7598 1.78723C17.7701 1.79755 17.7813 1.80786 17.7916 1.81911C20.0829 4.12724 20.0688 7.85655 17.7607 10.1469L10.6769 17.2775C10.4987 17.4575 10.2559 17.5588 10.0028 17.5578L9.99904 17.5578C9.74591 17.5578 9.5031 17.4566 9.32498 17.2775L2.24114 10.1469C-0.0669905 7.85561 -0.081055 4.12719 2.2102 1.81911L2.21049 1.81911ZM3.55862 8.77719C3.56799 8.78656 3.57643 8.795 3.5858 8.80437L10.001 15.2618L10.001 15.2599L10.0019 15.2609L10.0029 15.2599L10.0029 15.2618L16.4181 8.80438C16.4275 8.795 16.4359 8.78656 16.4453 8.77719C17.9968 7.21251 17.9865 4.68687 16.4218 3.13527C14.9293 1.65588 12.3277 2.46872 10.6731 4.10559C10.4847 4.28184 10.2437 4.36904 10.0037 4.36904L10.0028 4.36904L10.0018 4.36904L9.99997 4.36904C9.75904 4.36904 9.51904 4.28091 9.33059 4.10559C7.67591 2.46872 5.07443 1.65591 3.58187 3.13527C2.01719 4.68682 2.00687 7.21239 3.55843 8.77719L3.55862 8.77719Z" fill="#06D6A0"/>
</svg>
