<svg width="24" height="24" viewBox="0 0 24 24" fill="none" xmlns="http://www.w3.org/2000/svg">
<g clip-path="url(#clip0_410_621)">
<path fill-rule="evenodd" clip-rule="evenodd" d="M7.57895 7.47368L11.1579 7.47368L11.1579 5.68421L7.57895 5.68421C5.60235 5.68421 4 7.28656 4 9.26316L4 16.4211C4 18.3976 5.60235 20 7.57895 20L14.7368 20C16.7134 20 18.3158 18.3976 18.3158 16.4211L18.3158 12.8421L16.5263 12.8421L16.5263 16.4211C16.5263 17.4094 15.7252 18.2105 14.7368 18.2105L7.57895 18.2105C6.59065 18.2105 5.78947 17.4094 5.78947 16.4211L5.78947 9.26316C5.78947 8.27486 6.59065 7.47368 7.57895 7.47368ZM13.8421 5.68421L16.5263 5.68421L16.5263 3L18.3158 3L18.3158 5.68421L21 5.68421L21 7.47368L18.3158 7.47368L18.3158 10.1579L16.5263 10.1579L16.5263 7.47368L13.8421 7.47368L13.8421 5.68421Z" fill="white"/>
</g>
<defs>
<clipPath id="clip0_410_621">
<rect width="17" height="17" fill="white" transform="translate(4 3)"/>
</clipPath>
</defs>
</svg>
